<svg width="33" height="33" viewBox="0 0 33 33" fill="none" xmlns="http://www.w3.org/2000/svg">
<g clip-path="url(#clip0_367_84)">
<path d="M11.4958 1.08538C8.19861 2.22921 5.3551 4.40024 3.38296 7.27959C1.41081 10.1589 0.413988 13.5948 0.5389 17.0826C0.663813 20.5703 1.90388 23.9261 4.07695 26.6569C6.25002 29.3878 9.24156 31.3499 12.6121 32.2549C15.3448 32.96 18.2077 32.991 20.955 32.3451C23.4437 31.7861 25.7446 30.5904 27.6323 28.875C29.597 27.0351 31.0232 24.6945 31.7573 22.1048C32.5553 19.2887 32.6973 16.3271 32.1724 13.4475H16.8274V19.8129H25.7142C25.5366 20.8281 25.156 21.7971 24.5951 22.6618C24.0343 23.5265 23.3048 24.2692 22.4503 24.8454C21.3651 25.5632 20.1418 26.0462 18.8589 26.2633C17.5723 26.5026 16.2526 26.5026 14.966 26.2633C13.6619 25.9937 12.4283 25.4555 11.3437 24.683C9.60128 23.4495 8.29296 21.6973 7.60543 19.6762C6.90628 17.6173 6.90628 15.3852 7.60543 13.3263C8.09483 11.8831 8.90386 10.5691 9.97215 9.48233C11.1947 8.21582 12.7424 7.31051 14.4456 6.86573C16.1488 6.42095 17.9415 6.45389 19.6272 6.96093C20.9441 7.36515 22.1482 8.07142 23.1438 9.02343C24.1458 8.02655 25.1461 7.0271 26.1447 6.02507C26.6604 5.48624 27.2224 4.97319 27.7303 4.42147C26.2106 3.00731 24.4269 1.90692 22.4812 1.18335C18.9381 -0.103164 15.0613 -0.137737 11.4958 1.08538Z" fill="white"/>
<path d="M11.4958 1.08538C15.061 -0.138567 18.9378 -0.104903 22.4812 1.18077C24.4272 1.90925 26.2102 3.01495 27.7277 4.43436C27.2121 4.98608 26.6681 5.50171 26.1422 6.03796C25.1419 7.03655 24.1424 8.03171 23.1438 9.02343C22.1483 8.07142 20.9441 7.36515 19.6273 6.96093C17.9421 6.45211 16.1494 6.41727 14.4458 6.86023C12.7422 7.30319 11.1935 8.20684 9.96959 9.47202C8.90131 10.5588 8.09227 11.8728 7.60288 13.316L2.25842 9.17811C4.17141 5.38456 7.48364 2.48279 11.4958 1.08538Z" fill="#E33629"/>
<path d="M0.840432 13.2774C1.12769 11.8537 1.6046 10.475 2.2584 9.17813L7.60285 13.3263C6.9037 15.3852 6.9037 17.6173 7.60285 19.6763C5.82223 21.0513 4.04074 22.4331 2.2584 23.8219C0.62168 20.5639 0.122508 16.8519 0.840432 13.2774Z" fill="#F8BD00"/>
<path d="M16.8274 13.4449H32.1724C32.6973 16.3245 32.5553 19.2861 31.7574 22.1023C31.0232 24.6919 29.5971 27.0325 27.6324 28.8724C25.9076 27.5266 24.1751 26.1912 22.4503 24.8454C23.3054 24.2686 24.0353 23.5251 24.5961 22.6595C25.157 21.7938 25.5373 20.8239 25.7142 19.8077H16.8274C16.8249 17.6885 16.8274 15.5667 16.8274 13.4449Z" fill="#587DBD"/>
<path d="M2.25586 23.8219C4.0382 22.4469 5.81969 21.065 7.60031 19.6762C8.28921 21.698 9.5994 23.4503 11.3438 24.683C12.4317 25.4519 13.668 25.9858 14.9738 26.2505C16.2604 26.4897 17.5801 26.4897 18.8667 26.2505C20.1496 26.0333 21.3729 25.5503 22.458 24.8325C24.1828 26.1783 25.9153 27.5137 27.6401 28.8595C25.7526 30.5758 23.4517 31.7725 20.9627 32.3323C18.2155 32.9781 15.3525 32.9471 12.6199 32.242C10.4587 31.665 8.43994 30.6477 6.69023 29.254C4.83827 27.7836 3.32567 25.9307 2.25586 23.8219Z" fill="#319F43"/>
</g>
<defs>
<clipPath id="clip0_367_84">
<rect width="33" height="33" fill="white"/>
</clipPath>
</defs>
</svg>
