<svg width="436" height="437" viewBox="0 0 436 437" fill="none" xmlns="http://www.w3.org/2000/svg">
<path d="M225.693 1.65877C252.931 1.51894 279.931 6.74549 305.149 17.04C330.368 27.3345 353.312 42.4954 372.671 61.657C392.03 80.8185 407.426 103.606 417.979 128.717C428.532 153.829 434.035 180.773 434.175 208.011L226.758 209.076L225.693 1.65877Z" fill="#263238"/>
<path d="M433.453 226.016C433.667 253.254 428.514 280.267 418.288 305.513C408.062 330.759 392.964 353.744 373.855 373.156C354.746 392.567 332.001 408.024 306.919 418.645C281.836 429.266 254.907 434.843 227.669 435.057L226.041 227.644L433.453 226.016Z" fill="#F8BD00"/>
<path d="M211.204 434.129C183.966 434.347 156.952 429.199 131.703 418.977C106.455 408.755 83.4679 393.66 64.0535 374.554C44.6391 355.449 29.178 332.706 18.5528 307.625C7.92774 282.544 2.34675 255.616 2.12852 228.378L209.542 226.716L211.204 434.129Z" fill="#D9D9D9"/>
</svg>
