<svg width="531" height="272" viewBox="0 0 531 272" fill="none" xmlns="http://www.w3.org/2000/svg">
<path d="M345.039 0C214.473 76.5587 252.436 211.701 252.436 211.701L280.758 167.644M345.039 0C398.544 124.229 273.107 217.044 273.107 217.044L280.67 167.613M116.866 24.0838C184.349 27.7077 240.588 84.1483 240.588 84.1483C223.743 116.726 219.126 152.694 227.329 187.441C164.812 142.473 106.833 95.8382 116.853 24.0838M0 197.133C77.0182 238.599 165.081 264.184 256.709 271.714C210.855 184.522 129.369 153.262 0 197.133ZM274.783 271.238C413.744 265.45 530.547 198.634 530.686 197.982C412.459 156.099 326.587 179.355 274.783 271.238Z" fill="#319F43" fill-opacity="0.5"/>
</svg>
